<?xml version="1.0" encoding="UTF-8"?><svg id="Layer_2" xmlns="http://www.w3.org/2000/svg" viewBox="0 0 666.02 749.84"><defs><style>.cls-1{fill:#00aeef;}.cls-1,.cls-2,.cls-3,.cls-4,.cls-5{stroke-width:0px;}.cls-3{fill:#fff;}.cls-4{fill:#231f20;}.cls-5{fill:#2aace2;}</style></defs><g id="_Ñëîé_1"><path class="cls-1" d="m326.02,316.48c-.9,0-1.82-.09-2.74-.27-7.57-1.5-12.49-8.86-10.99-16.43,2.62-13.45,3.31-40.51-6.86-45.09-.47-.21-3.22-1.11-11.46,1.77-7.44,2.6-16.09,7.1-25.25,11.87-10.67,5.55-21.7,11.29-32.47,14.85-14.59,4.82-26.52,4.77-36.5-.14-6.9-3.4-11.2-9.22-12.11-16.39-1.33-10.59,4.92-22.07,20.9-38.39,11.11-11.34,25.38-23.58,39.18-35.41,5.87-5.03,13.08-11.21,19.5-16.99-8.71,1.8-20.63,4.69-36.86,9.3-25.77,7.31-49.34,15.25-49.57,15.33-7.31,2.47-15.24-1.46-17.71-8.77-2.47-7.31,1.46-15.24,8.77-17.71,1.13-.38,27.95-9.42,56.55-17.32,17.04-4.71,31.16-8.03,41.97-9.86,15.96-2.7,28.07-3.03,35.29,4.17,4.63,4.61,6.11,11.21,3.96,17.66-3.55,10.66-17.43,22.91-43.71,45.43-12.18,10.44-24.77,21.23-34.71,31.04-6.2,6.12-9.99,10.53-12.29,13.59,9.96-1.15,25.14-9.05,36.91-15.17,22.16-11.53,43.09-22.42,61.07-14.34,33.83,15.2,24.05,69.84,22.82,76.03-1.32,6.65-7.16,11.26-13.69,11.26Z"/><path class="cls-4" d="m61.27,377.39s-.11.04-.31.13c-.25.1-.91.38-1.39.54-1.09.4-2.64.91-4.71,1.43-2.07.51-4.65,1.04-7.84,1.3-3.18.25-6.98.29-11.34-.56-.27-.05-.55-.1-.82-.16-.28-.07-.55-.14-.83-.21-.56-.14-1.12-.27-1.7-.45-1.14-.36-2.31-.73-3.48-1.25-2.34-.98-4.74-2.27-6.98-3.96-2.24-1.67-4.4-3.67-6.23-5.97-.23-.28-.47-.57-.71-.86-.21-.3-.43-.6-.65-.9-.42-.6-.87-1.21-1.28-1.84-.75-1.27-1.58-2.56-2.21-3.91-1.41-2.68-2.43-5.53-3.41-8.46-.2-.73-.41-1.47-.62-2.22-.2-.74-.43-1.53-.58-2.16-.33-1.36-.67-2.75-1.02-4.15-1.38-5.73-2.62-12.01-3.52-18.65-1.87-13.29-2.23-28.19-.77-44.18,1.6-15.97,5.21-33,11.11-50.42.18-.55.36-1.09.54-1.64l.27-.82.13-.41c.04-.13.13-.37.16-.46.38-1.06.77-2.12,1.16-3.19.75-2.11,1.62-4.35,2.46-6.56.85-2.22,1.75-4.41,2.66-6.64.94-2.22,1.87-4.45,2.91-6.68,2.03-4.47,4.22-8.97,6.77-13.44,2.53-4.47,5.37-8.91,8.66-13.19,6.49-8.61,15.34-16.25,25.15-21.68,4.88-2.78,9.93-5.12,15.01-7.28,5.08-2.16,10.2-4.16,15.33-6.16,5.13-1.99,10.31-4.01,15.54-6.05,5.21-2.04,10.44-4.11,15.67-6.27,10.45-4.33,20.91-9.02,31.05-14.56,10.13-5.55,19.93-11.96,28.89-19.59,8.95-7.61,17.05-16.44,23.69-26.48.86-1.33,1.71-2.66,2.57-3.99l1.32-1.97.66-.99.33-.49c.11-.16.21-.33.36-.51,1.09-1.42,2.19-2.86,3.3-4.25,1.15-1.28,2.29-2.58,3.47-3.85,4.8-4.98,10.27-9.3,16.12-12.95,5.85-3.66,12.07-6.66,18.47-9.14,6.41-2.48,12.99-4.45,19.67-6.01,13.37-3.11,27.1-4.64,40.93-5.11,13.83-.44,27.77.12,41.77,1.78,3.5.4,7.09.94,10.59,1.58,3.51.64,7.01,1.36,10.48,2.17,6.94,1.62,13.81,3.55,20.62,5.75,6.81,2.2,13.56,4.67,20.23,7.45,6.67,2.78,13.27,5.88,19.74,9.43,3.23,1.79,6.43,3.68,9.58,5.76,3.14,2.08,6.24,4.33,9.23,6.89,2.99,2.56,5.89,5.43,8.47,9,1.28,1.8,2.47,3.79,3.41,6.09.23.58.44,1.18.65,1.78.18.63.38,1.24.51,1.9.14.66.27,1.31.34,2.01.04.44.08.46.12,1.26l.03.67.05,1.34-.06,1.86c-.03,1.31-.19,2.31-.31,3.42-.05.55-.16,1.08-.26,1.61l-.3,1.59c-.24,1.04-.51,2.07-.79,3.09-1.19,4.05-2.86,7.84-4.86,11.4-4.01,7.11-9.31,13.37-15.63,18.53-3.16,2.57-6.57,4.87-10.19,6.82-3.62,1.96-7.47,3.57-11.47,4.73-4,1.17-8.13,1.92-12.3,2.25-4.18.32-8.37.11-12.49-.42l-3.08-.48-3.03-.67-.76-.17-.65-.15-1.32-.33-1.32-.33-.66-.16-.63-.14-2.52-.58-2.56-.54c-.85-.19-1.71-.34-2.56-.51-.85-.17-1.71-.33-2.56-.47-3.41-.6-6.82-1.08-10.17-1.39-3.34-.3-6.65-.42-9.7-.23-1.54.08-2.97.27-4.24.53-1.28.24-2.35.64-2.89.95-.1.03-.12.07-.16.11-.04.03-.08.06-.13.08-.07.02-.02.04-.04.05,0,.01-.02.01-.03.01.03,0,.06-.02.08-.04.03-.02,0-.05.07-.09.1-.08.11-.2.2-.32.04-.06.04-.14.06-.19.04-.05.06-.1.07-.16,0-.07,0-.11.03-.12.01-.02.02-.05,0-.07-.03-.04.02.02.02.02,0,.02,0,.03,0,.05.03.09.08.22.08.33.17.6.67,1.66,1.34,2.74l.27.42c.05.08.26.41.18.29l.8,1.12,1.59,2.24c.53.77,1.05,1.43,1.58,2.14l1.57,2.09,1.58,2.1,1.66,2.14c8.87,11.42,18.12,22.73,27.46,33.91,18.72,22.37,38,44.3,57.76,65.5,4.98,5.25,9.92,10.55,14.98,15.68l3.77,3.87,1.89,1.93,1.91,1.9c2.55,2.53,5.1,5.06,7.65,7.58,2.56,2.51,5.16,4.94,7.74,7.41l3.87,3.68,3.97,3.67c5.33,4.9,10.66,9.79,15.97,14.68,5.34,4.93,10.69,9.94,15.96,15.19,5.26,5.27,10.45,10.75,15.32,16.97,2.43,3.11,4.77,6.41,6.9,10.07,1.08,1.81,2.07,3.76,3,5.77.91,2.04,1.74,4.18,2.42,6.45.65,2.29,1.19,4.67,1.46,7.18.26,2.51.3,5.09.05,7.68-.27,2.58-.81,5.13-1.58,7.57-.8,2.41-1.8,4.72-2.96,6.84-2.32,4.25-5.18,7.8-8.14,10.91-2.98,3.11-6.1,5.77-9.27,8.18-6.35,4.79-12.87,8.67-19.42,12.14-3.28,1.74-6.57,3.34-9.86,4.9-.32.15-.16.08-.87.41l-.6.26-1.19.52-1.19.52-.6.26c-.2.09-.47.19-.71.28-1.92.74-3.93,1.55-5.72,2.11-.92.3-1.84.63-2.75.91l-2.75.81-1.37.4-1.37.36-2.73.71c-3.62.86-7.22,1.64-10.74,2.28-7.06,1.32-13.91,2.34-20.52,3.43-6.63,1.08-13.05,2.22-19.32,3.62-12.52,2.77-24.39,6.6-35.65,11.7-5.62,2.56-11.1,5.38-16.44,8.44-1.33.78-2.64,1.58-3.95,2.37l-1.97,1.19-1.93,1.25c-1.29.84-2.57,1.67-3.86,2.5-1.26.88-2.52,1.75-3.78,2.63l-1.89,1.31-1.85,1.37c-1.23.91-2.46,1.82-3.69,2.73-1.22.91-2.41,1.89-3.61,2.83-1.24.98-2.48,1.96-3.72,2.94-1.25,1-2.49,1.99-3.74,2.98l-.93.74-1.01.77-2.03,1.54-2.02,1.54c-.68.51-1.36.98-2.03,1.47-1.37.97-2.69,1.96-4.09,2.9-5.5,3.82-11.27,7.41-17.47,10.58-.75.41-1.57.78-2.36,1.16l-2.39,1.13c-1.62.72-3.3,1.39-4.96,2.06-3.44,1.23-6.93,2.39-10.71,3.14-3.71.83-7.68,1.23-11.69,1.24-1.01-.03-2.02-.06-3.03-.09-1.01-.08-2.02-.2-3.03-.31-.5-.07-1.01-.1-1.51-.2l-1.5-.29-1.49-.3-.75-.15-.73-.2c-.97-.27-1.94-.55-2.91-.83-.95-.31-1.87-.68-2.8-1.02-.46-.18-.93-.34-1.38-.54l-1.33-.61-1.32-.62c-.44-.21-.88-.41-1.29-.65l-2.49-1.38c-.84-.46-1.57-.98-2.36-1.47-1.59-.98-2.99-2.06-4.44-3.11-5.61-4.32-10.25-9.01-14.46-13.7-4.2-4.7-7.97-9.43-11.56-14.11l-.78-1.02-.64-.86-1.27-1.72c-.84-1.15-1.68-2.29-2.52-3.43l-1.26-1.72-1.27-1.82c-.84-1.21-1.68-2.42-2.52-3.63-.83-1.2-1.69-2.41-2.49-3.61-.79-1.19-1.58-2.38-2.36-3.56-1.56-2.37-3.16-4.72-4.63-7.09-1.5-2.37-2.99-4.72-4.47-7.06-1.44-2.36-2.88-4.7-4.3-7.04-1.44-2.33-2.82-4.66-4.19-6.98-1.36-2.32-2.72-4.64-4.07-6.94-2.64-4.62-5.29-9.17-7.79-13.71-1.26-2.27-2.52-4.52-3.77-6.75-1.23-2.25-2.45-4.48-3.66-6.69-9.68-17.74-18.4-34.76-26.49-50.78-2.01-4.01-3.99-7.96-5.93-11.84-1.9-3.83-3.77-7.6-5.61-11.3-.48-.93-.95-1.85-1.42-2.77l-.35-.68-.33-.59-.66-1.18c-.83-1.57-1.84-3.12-2.77-4.66-1.94-2.97-3.97-5.69-6.03-7.85-.26-.27-.51-.55-.77-.8l-.76-.69-.38-.35c-.13-.12-.25-.23-.37-.32l-.73-.56c-.12-.09-.24-.2-.36-.28l-.34-.21c-.23-.14-.45-.29-.67-.44-.21-.09-.4-.18-.6-.29-.1-.05-.2-.12-.29-.15-.08-.02-.17-.05-.25-.08-.08-.03-.16-.06-.24-.1-.08-.04-.16-.08-.22-.07-.13-.02-.25-.05-.37-.1-.19.01-.37-.07-.49-.03-.26.01-.48.04-.92.26-.42.25-.99.75-1.58,1.42-.14.19-.29.37-.44.55-.15.19-.28.43-.42.63l-.22.32-.2.36-.41.71c-1.02,2.03-1.8,4.41-2.27,6.84-.12.61-.2,1.23-.3,1.83-.06.62-.13,1.23-.19,1.83-.07,1.5-.15,2.97-.22,4.43-.04.47-.07.95-.11,1.42-.04.47-.08.94-.13,1.37-.12.87-.19,1.74-.35,2.6-.27,1.72-.61,3.42-1.03,5.07-1.64,6.64-4.49,12.57-7.8,17.43-1.65,2.44-3.41,4.64-5.2,6.61-1.79,1.97-3.58,3.76-5.37,5.33-3.55,3.2-6.99,5.68-10.11,7.76-6.26,4.13-11.26,6.63-14.62,8.29-.84.41-1.59.76-2.22,1.07-.64.29-1.18.54-1.61.74-.86.4-1.3.6-1.3.6l-.13.06Zm-6.93-15.49s.39-.19,1.17-.56c.39-.18.87-.42,1.44-.69.57-.28,1.23-.61,1.98-.99,2.98-1.52,7.38-3.84,12.55-7.37,2.57-1.77,5.34-3.84,8.02-6.35,1.36-1.24,2.67-2.61,3.95-4.08,1.28-1.46,2.5-3.05,3.6-4.76,2.22-3.42,4-7.33,5.02-11.82.26-1.12.46-2.28.62-3.47.1-.59.13-1.21.2-1.81.04-.32.05-.59.06-.87.02-.28.03-.56.05-.84.04-1.58.09-3.18.13-4.8.06-.95.14-1.9.23-2.86.13-.96.24-1.92.4-2.9.67-3.88,1.78-7.87,3.71-11.92.27-.51.53-1.01.8-1.52l.41-.76.47-.76c.32-.51.63-1.02.98-1.52.38-.5.75-1.01,1.13-1.51,1.61-2,3.57-3.98,6.15-5.64,2.58-1.64,5.8-2.87,9.16-3.2,1.69-.21,3.33-.11,4.96.06.78.13,1.56.28,2.34.44.4.07.75.19,1.11.3l1.07.35,1.07.37c.34.13.65.28.98.43.65.29,1.3.6,1.93.91.58.34,1.16.68,1.74,1.02l.87.53c.28.18.52.37.79.55.52.38,1.03.76,1.55,1.13.27.19.51.38.74.58l.7.6c.46.4.93.8,1.4,1.21.44.41.85.83,1.28,1.25,3.38,3.35,6.15,6.93,8.71,10.63,1.21,1.87,2.46,3.7,3.61,5.72.29.5.59.99.88,1.49l.44.75.38.69c.5.91,1,1.82,1.5,2.73,1.98,3.73,3.99,7.52,6.04,11.38,2.03,3.8,4.1,7.66,6.2,11.58,8.45,15.66,17.59,32.23,27.56,49.45,1.25,2.15,2.5,4.31,3.77,6.49,1.28,2.16,2.57,4.34,3.86,6.53,2.57,4.4,5.27,8.77,7.97,13.23,1.37,2.21,2.75,4.43,4.14,6.66.69,1.12,1.39,2.23,2.09,3.36.71,1.11,1.42,2.23,2.13,3.34,1.43,2.23,2.86,4.47,4.31,6.73,1.47,2.23,2.96,4.46,4.45,6.71,6.06,9.03,12.13,17.68,19.07,26.54,3.43,4.35,6.93,8.62,10.54,12.56,3.62,3.93,7.35,7.58,11.16,10.45.96.67,1.91,1.41,2.87,1.97.48.29.95.64,1.44.88l1.44.78c.24.14.48.24.72.35l.72.32.71.33c.24.11.48.17.72.26.48.16.95.36,1.43.52.48.12.96.26,1.44.4l.36.11.36.06.73.14.73.15c.24.05.49.05.74.08l1.48.16c.51,0,1.02.01,1.53.03,2.06-.03,4.19-.2,6.46-.73,2.24-.43,4.59-1.23,6.96-2.07,1.19-.5,2.39-.97,3.6-1.5l1.81-.86c.61-.29,1.21-.55,1.82-.89,4.86-2.49,9.77-5.48,14.62-8.85,1.22-.81,2.42-1.72,3.63-2.57l1.81-1.3,1.77-1.33,1.77-1.33.89-.67.94-.74c1.25-.99,2.5-1.97,3.75-2.96,1.27-1,2.54-1.99,3.82-2.99,1.33-1.02,2.63-2.08,3.98-3.08,1.36-1,2.72-2,4.08-3l2.05-1.5,2.1-1.44c1.4-.96,2.81-1.93,4.21-2.89,1.44-.93,2.88-1.85,4.33-2.78l2.17-1.39,2.22-1.33c1.49-.88,2.96-1.78,4.46-2.64,6.04-3.42,12.28-6.61,18.73-9.48,12.9-5.72,26.65-10.02,40.53-12.96,6.93-1.49,13.88-2.66,20.71-3.72,6.84-1.05,13.55-1.98,20.02-3.12,3.25-.55,6.39-1.21,9.49-1.9l2.29-.57,1.15-.28,1.12-.31,2.24-.63c.74-.22,1.46-.47,2.19-.7,1.53-.46,2.73-.96,4.06-1.43.17-.06.31-.1.51-.19l.6-.25,1.2-.51,1.2-.51.6-.25c-.32.14.23-.11.31-.15,3.01-1.39,6-2.8,8.91-4.31,5.83-2.98,11.42-6.25,16.34-9.86,2.45-1.81,4.72-3.71,6.64-5.67,1.92-1.96,3.52-3.97,4.62-5.92.55-.97.96-1.93,1.31-2.87.3-.94.51-1.87.64-2.81.1-.95.1-1.93.02-2.95-.09-1.03-.32-2.13-.61-3.27-.32-1.15-.75-2.34-1.27-3.57-.55-1.23-1.14-2.48-1.87-3.75-1.41-2.54-3.15-5.11-5.08-7.67-3.87-5.12-8.45-10.17-13.26-15.16-4.83-4.98-9.91-9.92-15.09-14.86-5.23-4.97-10.48-9.95-15.73-14.95l-3.95-3.78-3.95-3.88c-2.62-2.6-5.28-5.17-7.86-7.8-2.56-2.64-5.13-5.29-7.69-7.93l-1.92-1.99-1.89-2.01-3.77-4.03c-5.07-5.35-9.98-10.83-14.94-16.27-2.47-2.73-4.89-5.5-7.34-8.25l-3.66-4.13-3.62-4.17c-2.41-2.78-4.82-5.56-7.24-8.35l-7.16-8.42c-9.51-11.25-18.91-22.61-28.13-34.12-9.23-11.51-18.33-23.09-27.2-34.99l-1.66-2.23-1.68-2.32-1.68-2.33c-.55-.78-1.14-1.57-1.64-2.31l-1.55-2.27-.77-1.13c-.33-.5-.36-.57-.55-.88l-.46-.75c-1.19-2.06-2.35-4.31-3.12-7.25-.17-.78-.33-1.55-.45-2.36-.04-.44-.08-.88-.1-1.32-.02-.45-.07-.85-.03-1.35.02-.48.06-.96.11-1.44.03-.47.12-.96.24-1.47.11-.5.24-1,.38-1.49.16-.49.37-.98.58-1.46.4-.99.96-1.84,1.55-2.7.29-.44.61-.78.93-1.15.32-.36.66-.72,1-1.06.33-.29.68-.58,1.02-.86.34-.27.71-.59,1.04-.79.34-.22.68-.44,1.03-.65.35-.21.7-.43,1.02-.58,2.7-1.39,5.18-2.05,7.48-2.48,2.31-.43,4.52-.65,6.63-.73,4.24-.18,8.25.07,12.16.48,3.91.42,7.72,1.04,11.47,1.77.94.17,1.87.37,2.8.57.93.2,1.86.39,2.79.61l2.77.64,2.79.69.7.17.66.18,1.32.35,1.32.35c.22.06.55.14.68.17l.57.14,2.29.55,2.3.39c3.07.45,6.16.67,9.23.49,3.07-.19,6.11-.68,9.08-1.49,2.98-.79,5.87-1.95,8.63-3.38,2.77-1.43,5.41-3.13,7.88-5.07,4.95-3.87,9.21-8.73,12.32-14.1,3.11-5.35,5.12-11.27,4.93-16.6l-.02-.67c.03.35-.02-.08-.02-.08,0-.2-.06-.42-.1-.64-.03-.22-.12-.46-.17-.69-.09-.24-.16-.49-.26-.74-.4-1.02-1.01-2.13-1.78-3.25-1.56-2.25-3.69-4.5-6.08-6.59-4.79-4.22-10.46-7.91-16.33-11.25-5.89-3.33-12.04-6.32-18.31-9.03-6.27-2.71-12.66-5.14-19.11-7.31-6.45-2.18-12.97-4.06-19.51-5.66-3.27-.8-6.54-1.51-9.82-2.14-3.28-.63-6.5-1.15-9.83-1.56-13.29-1.71-26.67-2.41-39.83-2.06-13.16.35-26.15,1.72-38.59,4.52-12.41,2.79-24.3,7.11-34.57,13.48-5.13,3.18-9.83,6.88-13.91,11.08-.98,1.08-1.96,2.16-2.94,3.24-.86,1.09-1.72,2.17-2.57,3.25-.11.12-.22.29-.33.46l-.33.49-.66.99-1.32,1.97c-.86,1.32-1.71,2.64-2.57,3.96-3.67,5.47-7.69,10.65-12.02,15.49-4.33,4.83-8.96,9.32-13.8,13.45-9.68,8.28-20.17,15.14-30.81,21.02-10.64,5.91-21.45,10.85-32.1,15.35-5.33,2.25-10.62,4.39-15.84,6.48-5.21,2.09-10.36,4.16-15.46,6.21-5.09,2.06-10.09,4.08-14.89,6.19-4.8,2.11-9.4,4.32-13.64,6.8-8.54,4.89-15.47,11.12-20.96,18.59-5.51,7.43-9.8,15.76-13.43,24.18-.93,2.09-1.77,4.22-2.63,6.33-.83,2.12-1.65,4.24-2.42,6.34-.76,2.11-1.52,4.15-2.25,6.33-.37,1.07-.74,2.14-1.1,3.21-.32,1.03-.64,2.05-.95,3.07-5.3,16.52-8.39,32.48-9.65,47.3-1.11,14.83-.56,28.51,1.34,40.61.92,6.06,2.12,11.7,3.5,17.05.36,1.36.71,2.7,1.05,4.03.18.71.35,1.24.51,1.81.16.56.33,1.12.49,1.68.76,2.13,1.51,4.16,2.47,5.87.43.91.97,1.66,1.43,2.45.25.37.53.71.78,1.07l.38.53.41.47c1.05,1.3,2.2,2.29,3.35,3.12,1.14.85,2.34,1.45,3.54,1.93.59.26,1.21.43,1.8.62.3.09.61.14.91.22.15.04.3.07.45.11.15.02.31.05.46.07,2.4.43,4.74.4,6.77.2,2.04-.19,3.78-.58,5.15-.94,1.37-.37,2.38-.72,2.98-.95.37-.14.33-.13.5-.2.21-.09.31-.14.31-.14l-.13.06Z"/><path class="cls-4" d="m222.87,365.87s36.41,12.47,66.49-16.36c30.08-28.83,11.02-69.66,68.94-111.64,57.91-41.98,103.61-11.28,126.66,33.9,12.12,23.76-5.64,80.72-81.55,115.47-75.91,34.75-180.54-21.37-180.54-21.37Z"/><path class="cls-3" d="m287.63,371.41s27.81-7.5,45.64-28.65c28.16-33.4,32.99-73.67,64.37-87.04,31.38-13.37,49.71,6.4,49.71,6.4,0,0-19.36-9.1-34.25-2.35-33.18,15.04-34.69,55.4-61.8,83.32-12.7,13.08-31.67,26.29-63.67,28.31Z"/><path class="cls-3" d="m330.31,314.32s-4.2-27.35,25.36-55.46c31.65-30.1,54.48-24.68,58.74-24.36-26.76,10.43-52.34,17.2-84.1,79.82Z"/><path class="cls-4" d="m437.2,223.13s48.38-51.44,112.67-132.12C614.17,10.32,665.95,0,665.95,0c0,0,4.81,45.01-63.14,128.41-63.69,78.17-117.85,143.36-117.85,143.36l-47.75-48.63Z"/><path class="cls-3" d="m501.29,229.88s-4.37-22.66-26.41-26.9c9.63,9.81,26.41,26.9,26.41,26.9Z"/><path class="cls-3" d="m476.7,257.71s-4.37-22.66-26.42-26.9c9.63,9.81,26.42,26.9,26.42,26.9Z"/><path class="cls-5" d="m205.53,690.53h-29.46c-2.14-3.4-6.17-5.54-11.96-5.54-10.83,0-16.87,7.68-16.87,19.52,0,13.85,6.3,20.78,20.02,20.78,6.3,0,11.46-2.27,15.61-7.81h-22.29v-19.77h45.46v27.95c-6.17,10.7-18.76,24.18-41.8,24.18-28.08,0-45.33-18.76-45.33-45.33s17.12-45.33,45.08-45.33c23.67,0,38.91,12.34,41.55,31.35Z"/><path class="cls-5" d="m257.66,660.06c22.41,0,33.87,12.84,33.87,29.21,0,11.71-6.55,21.66-19.27,25.81l19.39,34.12h-30.72l-16.75-31.98h-.13v31.98h-27.95v-89.15h41.55Zm-2.52,23.42h-11.08v15.11h11.08c5.29,0,8.06-2.27,8.06-7.55,0-4.53-2.77-7.55-8.06-7.55Z"/><path class="cls-5" d="m300.48,660.06h27.95v89.15h-27.95v-89.15Z"/><path class="cls-5" d="m426.52,660.06v89.15h-27.95l-29.59-44.83v44.83h-27.95v-89.15h27.95l29.59,45.58v-45.58h27.95Z"/><path class="cls-5" d="m522.6,704.38c0,25.44-17.88,44.83-46.34,44.83h-37.15v-89.15h37.15c28.46,0,46.34,18.64,46.34,44.32Zm-48.86,19.89c12.34,0,20.52-6.92,20.52-19.89s-8.18-19.89-20.52-19.89h-6.67v39.79h6.67Z"/><path class="cls-2" d="m73.3,556.49h74.95v22.13h-23.64v66.91h-27.92v-66.91h-23.39v-22.13Z"/><path class="cls-2" d="m152.03,591.07h58.61v23.01h-58.61v-23.01Z"/><path class="cls-2" d="m263.08,646.41c-20.37,0-36.35-9.43-37.6-29.43h29.68c.5,6.54,4.02,7.67,6.79,7.67s5.41-1.26,5.41-4.4c-.13-12.07-42.13-7.67-41.63-38.11,0-17.86,15.09-27.16,34.08-27.16,21.51,0,35.34,10.31,36.09,28.8h-30.06c-.25-5.41-3.14-7.04-6.16-7.04-2.26,0-4.02,1.51-4.02,4.53,0,11.19,41.38,9.31,41.38,36.72,0,16.35-12.45,28.42-33.96,28.42Z"/><path class="cls-2" d="m361.3,610.82h-26.54v34.71h-27.92v-89.04h27.92v32.07h26.54v-32.07h27.92v89.04h-27.92v-34.71Z"/><path class="cls-2" d="m401.8,556.49h27.92v89.04h-27.92v-89.04Z"/><path class="cls-2" d="m483.8,556.49c22.39,0,33.83,12.83,33.83,29.18,0,11.7-6.54,21.63-19.24,25.78l19.37,34.08h-30.69l-16.73-31.94h-.13v31.94h-27.92v-89.04h41.5Zm-2.52,23.39h-11.07v15.09h11.07c5.28,0,8.05-2.26,8.05-7.55,0-4.53-2.77-7.55-8.05-7.55Z"/><path class="cls-2" d="m521.53,556.49h74.95v22.13h-23.64v66.91h-27.92v-66.91h-23.39v-22.13Z"/></g></svg>